# xmcd CD database file
#
# Track frame offsets:
#	150
#	31043
#	51273
#	77158
#	95255
#	133820
#
# Disc length: 1985 seconds
#
# Revision: 0
# Processed by: cddbd v1.5.2PL0 Copyright (c) Steve Scherf et al.
# Submitted via: CDex 1.70beta3
#
DISCID=4407bf06
DTITLE=J. R. Monterose - In Action
DYEAR=1964
DGENRE=Jazz
TTITLE0=Waltz For Claire
TTITLE1=I Should Care
TTITLE2=That You Are
TTITLE3=Red Devil
TTITLE4=Lover Man
TTITLE5=Herky Hawks
EXTD=YEAR: 1964
EXTT0=
EXTT1=
EXTT2=
EXTT3=
EXTT4=
EXTT5=
PLAYORDER=
